<svg width="70" height="70" viewBox="0 0 70 70" fill="none" xmlns="http://www.w3.org/2000/svg">
<path d="M44.4283 0.831543C30.8036 0.831543 19.7559 11.8793 19.7559 25.5111C19.7559 39.1357 30.8036 50.1835 44.4283 50.1835C58.06 50.1835 69.1078 39.1357 69.1078 25.5111C69.1078 11.8793 58.06 0.831543 44.4283 0.831543Z" fill="#D28147"/>
<path d="M25.453 19.8164C11.8212 19.8164 0.773438 30.8642 0.773438 44.4888C0.773438 58.1206 11.8212 69.1683 25.453 69.1683C39.0776 69.1683 50.1254 58.1206 50.1254 44.4888C50.1254 30.8642 39.0776 19.8164 25.453 19.8164Z" fill="#F6B059"/>
<path d="M22.6069 38.7933C19.9802 38.7933 17.859 40.9217 17.859 43.5412C17.859 46.1608 19.9802 48.2892 22.6069 48.2892C25.2265 48.2892 27.3478 46.1608 27.3478 43.5412C27.3478 40.9217 25.2265 38.7933 22.6069 38.7933ZM26.401 27.4038C24.8279 27.4038 23.5537 28.678 23.5537 30.2512C23.5537 31.8243 24.8279 33.0985 26.401 33.0985C27.9742 33.0985 29.2484 31.8243 29.2484 30.2512C29.2484 28.678 27.9742 27.4038 26.401 27.4038ZM33.0425 50.1827C30.9497 50.1827 29.2484 51.884 29.2484 53.9839C29.2484 56.0768 30.9497 57.7781 33.0425 57.7781C35.1425 57.7781 36.8438 56.0768 36.8438 53.9839C36.8438 51.884 35.1425 50.1827 33.0425 50.1827ZM11.2175 44.488C9.64431 44.488 8.37012 45.7622 8.37012 47.3354C8.37012 48.9085 9.64431 50.1827 11.2175 50.1827C12.7906 50.1827 14.0648 48.9085 14.0648 47.3354C14.0648 45.7622 12.7906 44.488 11.2175 44.488ZM37.7905 38.7933C36.2173 38.7933 34.9431 40.0675 34.9431 41.6406C34.9431 43.2138 36.2173 44.488 37.7905 44.488C39.3637 44.488 40.6379 43.2138 40.6379 41.6406C40.6379 40.0675 39.3637 38.7933 37.7905 38.7933ZM19.7596 55.8774C18.706 55.8774 17.859 56.7317 17.859 57.7781C17.859 58.8245 18.706 59.6787 19.7596 59.6787C20.806 59.6787 21.6531 58.8245 21.6531 57.7781C21.6531 56.7317 20.806 55.8774 19.7596 55.8774Z" fill="#6D420D"/>
<path d="M38.7365 8.42796C36.6437 8.42796 34.9424 10.1221 34.9424 12.2221C34.9424 14.322 36.6437 16.0162 38.7365 16.0162C40.8364 16.0162 42.5377 14.322 42.5377 12.2221C42.5377 10.1221 40.8364 8.42796 38.7365 8.42796ZM49.1792 17.9168C47.606 17.9168 46.3318 19.191 46.3318 20.7642C46.3318 22.3373 47.606 23.6115 49.1792 23.6115C50.7524 23.6115 52.0266 22.3373 52.0266 20.7642C52.0266 19.191 50.7524 17.9168 49.1792 17.9168ZM51.0727 6.52734C49.4995 6.52734 48.2253 7.80154 48.2253 9.37471C48.2253 10.9479 49.4995 12.2221 51.0727 12.2221C52.6459 12.2221 53.9201 10.9479 53.9201 9.37471C53.9201 7.80154 52.6459 6.52734 51.0727 6.52734ZM57.7213 27.4056C56.6749 27.4056 55.8207 28.2598 55.8207 29.3063C55.8207 30.3527 56.6749 31.2069 57.7213 31.2069C58.7677 31.2069 59.6219 30.3527 59.6219 29.3063C59.6219 28.2598 58.7677 27.4056 57.7213 27.4056Z" fill="#7A441D"/>
</svg>
