<svg width="115" height="45" viewBox="0 0 115 45" fill="none" xmlns="http://www.w3.org/2000/svg">
<g filter="url(#filter0_d_2001_2383)">
<path d="M50.4984 27.6741V7.96785H54.1019V24.8589H62.8289V27.6741H50.4984ZM71.9872 28.0119C70.636 28.0119 69.416 27.7022 68.3275 27.0829C67.2577 26.4635 66.4038 25.6096 65.7657 24.5211C65.1464 23.4138 64.8367 22.1376 64.8367 20.6924C64.8367 19.2473 65.1557 17.9805 65.7939 16.892C66.432 15.7847 67.2859 14.9213 68.3557 14.302C69.4442 13.6827 70.6641 13.373 72.0154 13.373C73.3479 13.373 74.549 13.6827 75.6188 14.302C76.7073 14.9213 77.5613 15.7847 78.1806 16.892C78.8187 17.9805 79.1378 19.2473 79.1378 20.6924C79.1378 22.1376 78.8187 23.4138 78.1806 24.5211C77.5613 25.6096 76.7073 26.4635 75.6188 27.0829C74.5303 27.7022 73.3198 28.0119 71.9872 28.0119ZM71.9872 24.887C72.9256 24.887 73.742 24.5398 74.4364 23.8454C75.1308 23.1323 75.4781 22.0813 75.4781 20.6924C75.4781 19.3036 75.1308 18.262 74.4364 17.5676C73.742 16.8544 72.935 16.4978 72.0154 16.4978C71.0582 16.4978 70.2324 16.8544 69.538 17.5676C68.8624 18.262 68.5246 19.3036 68.5246 20.6924C68.5246 22.0813 68.8624 23.1323 69.538 23.8454C70.2324 24.5398 71.0488 24.887 71.9872 24.887ZM87.3917 23.5076C86.7161 23.5076 86.0874 23.4325 85.5056 23.2824L84.464 24.324C84.783 24.4929 85.2147 24.6337 85.7589 24.7463C86.3032 24.8589 87.1853 24.9715 88.4052 25.0841C90.2632 25.253 91.6145 25.6941 92.459 26.4072C93.3036 27.1204 93.7259 28.1057 93.7259 29.3632C93.7259 30.189 93.5007 30.9678 93.0502 31.6998C92.5998 32.4505 91.9054 33.0511 90.967 33.5015C90.0286 33.9707 88.8275 34.2053 87.3636 34.2053C85.3742 34.2053 83.7695 33.8299 82.5496 33.0792C81.3297 32.3473 80.7198 31.24 80.7198 29.7573C80.7198 28.4999 81.3297 27.4113 82.5496 26.4917C82.1743 26.3228 81.8458 26.1445 81.5643 25.9568C81.3016 25.7691 81.067 25.5721 80.8605 25.3656V24.7181L83.3097 22.1282C82.2212 21.171 81.6769 19.9417 81.6769 18.4403C81.6769 17.5019 81.9021 16.648 82.3526 15.8785C82.8218 15.109 83.4786 14.4991 84.3232 14.0486C85.1677 13.5982 86.1906 13.373 87.3917 13.373C88.18 13.373 88.9119 13.4856 89.5876 13.7108H94.8801V15.9066L92.4872 16.0756C92.8626 16.7887 93.0502 17.577 93.0502 18.4403C93.0502 19.3787 92.825 20.2326 92.3746 21.0021C91.9242 21.7716 91.2673 22.3815 90.404 22.832C89.5594 23.2824 88.5553 23.5076 87.3917 23.5076ZM87.3917 20.7487C88.1237 20.7487 88.7243 20.5517 89.1934 20.1576C89.6814 19.7634 89.9254 19.2004 89.9254 18.4685C89.9254 17.7365 89.6814 17.1735 89.1934 16.7793C88.7243 16.3852 88.1237 16.1882 87.3917 16.1882C86.6223 16.1882 86.0029 16.3852 85.5337 16.7793C85.0645 17.1735 84.8299 17.7365 84.8299 18.4685C84.8299 19.2004 85.0645 19.7634 85.5337 20.1576C86.0029 20.5517 86.6223 20.7487 87.3917 20.7487ZM84.0135 29.3913C84.0135 30.0857 84.3326 30.6019 84.9707 30.9397C85.6276 31.2963 86.4252 31.4746 87.3636 31.4746C88.2644 31.4746 88.9964 31.2869 89.5594 30.9115C90.1225 30.5549 90.404 30.067 90.404 29.4476C90.404 28.9409 90.2163 28.5186 89.8409 28.1808C89.4843 27.843 88.7618 27.6365 87.6733 27.5615C86.9038 27.5052 86.1906 27.4207 85.5337 27.3081C84.9895 27.6084 84.5953 27.9368 84.3513 28.2934C84.1261 28.65 84.0135 29.016 84.0135 29.3913ZM103.658 28.0119C102.307 28.0119 101.087 27.7022 99.9982 27.0829C98.9285 26.4635 98.0745 25.6096 97.4364 24.5211C96.8171 23.4138 96.5074 22.1376 96.5074 20.6924C96.5074 19.2473 96.8265 17.9805 97.4646 16.892C98.1027 15.7847 98.9566 14.9213 100.026 14.302C101.115 13.6827 102.335 13.373 103.686 13.373C105.019 13.373 106.22 13.6827 107.29 14.302C108.378 14.9213 109.232 15.7847 109.851 16.892C110.489 17.9805 110.808 19.2473 110.808 20.6924C110.808 22.1376 110.489 23.4138 109.851 24.5211C109.232 25.6096 108.378 26.4635 107.29 27.0829C106.201 27.7022 104.99 28.0119 103.658 28.0119ZM103.658 24.887C104.596 24.887 105.413 24.5398 106.107 23.8454C106.802 23.1323 107.149 22.0813 107.149 20.6924C107.149 19.3036 106.802 18.262 106.107 17.5676C105.413 16.8544 104.606 16.4978 103.686 16.4978C102.729 16.4978 101.903 16.8544 101.209 17.5676C100.533 18.262 100.195 19.3036 100.195 20.6924C100.195 22.0813 100.533 23.1323 101.209 23.8454C101.903 24.5398 102.72 24.887 103.658 24.887Z" fill="#170F49"/>
<path d="M4.05548 15.4841C4.05548 7.02997 10.9089 0.176514 19.3631 0.176514V21.3221C19.3631 29.7763 12.5096 36.6297 4.05548 36.6297V15.4841Z" fill="#4A3AFF"/>
<path d="M21.584 8.49455C21.584 3.90063 25.3081 0.176514 29.902 0.176514C34.496 0.176514 38.2201 3.90062 38.2201 8.49455V8.97479C38.2201 13.5687 34.496 17.2928 29.902 17.2928C25.3081 17.2928 21.584 13.5687 21.584 8.97479V8.49455Z" fill="#4CBFFF"/>
<path d="M21.584 27.8317C21.584 23.2378 25.3081 19.5137 29.902 19.5137C34.496 19.5137 38.2201 23.2378 38.2201 27.8317V28.3119C38.2201 32.9059 34.496 36.63 29.902 36.63C25.3081 36.63 21.584 32.9059 21.584 28.312V27.8317Z" fill="#962DFF"/>
</g>
<defs>
<filter id="filter0_d_2001_2383" x="0.055481" y="0.176514" width="114.753" height="44.4535" filterUnits="userSpaceOnUse" color-interpolation-filters="sRGB">
<feFlood flood-opacity="0" result="BackgroundImageFix"/>
<feColorMatrix in="SourceAlpha" type="matrix" values="0 0 0 0 0 0 0 0 0 0 0 0 0 0 0 0 0 0 127 0" result="hardAlpha"/>
<feOffset dy="4"/>
<feGaussianBlur stdDeviation="2"/>
<feComposite in2="hardAlpha" operator="out"/>
<feColorMatrix type="matrix" values="0 0 0 0 0 0 0 0 0 0 0 0 0 0 0 0 0 0 0.25 0"/>
<feBlend mode="normal" in2="BackgroundImageFix" result="effect1_dropShadow_2001_2383"/>
<feBlend mode="normal" in="SourceGraphic" in2="effect1_dropShadow_2001_2383" result="shape"/>
</filter>
</defs>
</svg>
