<svg width="217" height="50" viewBox="0 0 217 50" fill="none" xmlns="http://www.w3.org/2000/svg">
<path d="M61.4502 38.1025L71.1782 11.5025H76.6502L86.3782 38.1025H81.2102L79.0822 31.9465H68.7082L66.5422 38.1025H61.4502ZM70.0382 28.1465H77.7522L73.8762 17.0885L70.0382 28.1465ZM89.8047 38.1025V11.5025H99.6467C101.775 11.5025 103.535 11.8572 104.929 12.5665C106.322 13.2759 107.361 14.2512 108.045 15.4925C108.729 16.7339 109.071 18.1272 109.071 19.6725C109.071 21.1419 108.741 22.4972 108.083 23.7385C107.424 24.9545 106.398 25.9425 105.005 26.7025C103.611 27.4372 101.825 27.8045 99.6467 27.8045H94.6687V38.1025H89.8047ZM94.6687 23.8525H99.3427C101.04 23.8525 102.256 23.4852 102.991 22.7505C103.751 21.9905 104.131 20.9645 104.131 19.6725C104.131 18.3552 103.751 17.3292 102.991 16.5945C102.256 15.8345 101.04 15.4545 99.3427 15.4545H94.6687V23.8525ZM112.887 38.1025V11.5025H117.751V38.1025H112.887ZM131.961 38.1025V11.5025H141.727C143.855 11.5025 145.603 11.8699 146.971 12.6045C148.364 13.3139 149.403 14.2892 150.087 15.5305C150.771 16.7465 151.113 18.1019 151.113 19.5965C151.113 21.2179 150.682 22.6999 149.821 24.0425C148.985 25.3852 147.668 26.3605 145.869 26.9685L151.379 38.1025H145.793L140.853 27.6145H136.825V38.1025H131.961ZM136.825 24.0425H141.423C143.044 24.0425 144.235 23.6499 144.995 22.8645C145.755 22.0792 146.135 21.0405 146.135 19.7485C146.135 18.4819 145.755 17.4685 144.995 16.7085C144.26 15.9485 143.057 15.5685 141.385 15.5685H136.825V24.0425ZM169.887 46.1585C167.075 46.1585 164.617 45.6139 162.515 44.5245C160.412 43.4605 158.778 41.9405 157.613 39.9645C156.447 38.0139 155.865 35.6959 155.865 33.0105C155.865 30.1985 156.359 27.5892 157.347 25.1825C158.335 22.7759 159.715 20.6859 161.489 18.9125C163.287 17.1139 165.39 15.7205 167.797 14.7325C170.203 13.7445 172.838 13.2505 175.701 13.2505C178.639 13.2505 181.173 13.8079 183.301 14.9225C185.454 16.0119 187.113 17.5445 188.279 19.5205C189.444 21.4965 190.027 23.7765 190.027 26.3605C190.027 27.8805 189.824 29.3625 189.419 30.8065C189.039 32.2252 188.469 33.5045 187.709 34.6445C186.974 35.7592 186.049 36.6459 184.935 37.3045C183.845 37.9632 182.591 38.2925 181.173 38.2925C179.855 38.2925 178.804 38.0012 178.019 37.4185C177.233 36.8359 176.739 36.0379 176.537 35.0245C175.802 36.0632 174.852 36.8865 173.687 37.4945C172.547 38.0772 171.318 38.3685 170.001 38.3685C168.075 38.3685 166.581 37.7985 165.517 36.6585C164.453 35.4932 163.921 33.9225 163.921 31.9465C163.921 30.5785 164.136 29.2612 164.567 27.9945C164.997 26.7025 165.605 25.5625 166.391 24.5745C167.201 23.5612 168.151 22.7632 169.241 22.1805C170.355 21.5979 171.571 21.3065 172.889 21.3065C175.245 21.3065 176.79 22.2059 177.525 24.0045L177.943 21.6485H181.933L180.147 31.8325C179.995 32.8205 180.02 33.6185 180.223 34.2265C180.451 34.8092 180.995 35.1005 181.857 35.1005C182.591 35.1005 183.225 34.8472 183.757 34.3405C184.314 33.8085 184.77 33.1245 185.125 32.2885C185.505 31.4272 185.783 30.5025 185.961 29.5145C186.163 28.5012 186.265 27.5132 186.265 26.5505C186.265 23.4599 185.289 21.0279 183.339 19.2545C181.388 17.4559 178.677 16.5565 175.207 16.5565C172.952 16.5565 170.875 16.9745 168.975 17.8105C167.1 18.6212 165.453 19.7612 164.035 21.2305C162.641 22.6999 161.552 24.4099 160.767 26.3605C160.007 28.2859 159.627 30.3632 159.627 32.5925C159.627 35.8352 160.589 38.3432 162.515 40.1165C164.44 41.9152 167.1 42.8145 170.495 42.8145C171.635 42.8145 172.762 42.7005 173.877 42.4725C175.017 42.2445 176.055 41.9152 176.993 41.4845L177.791 44.6385C175.409 45.6519 172.775 46.1585 169.887 46.1585ZM171.521 34.7965C172.433 34.7965 173.269 34.5432 174.029 34.0365C174.789 33.5299 175.409 32.8459 175.891 31.9845C176.372 31.0979 176.638 30.1099 176.689 29.0205C176.765 27.8552 176.511 26.8672 175.929 26.0565C175.371 25.2459 174.485 24.8405 173.269 24.8405C172.255 24.8405 171.369 25.1445 170.609 25.7525C169.849 26.3605 169.253 27.1459 168.823 28.1085C168.392 29.0459 168.177 30.0592 168.177 31.1485C168.177 32.2379 168.455 33.1245 169.013 33.8085C169.595 34.4672 170.431 34.7965 171.521 34.7965ZM195.418 38.1025V11.5025H205.26C207.388 11.5025 209.149 11.8572 210.542 12.5665C211.935 13.2759 212.974 14.2512 213.658 15.4925C214.342 16.7339 214.684 18.1272 214.684 19.6725C214.684 21.1419 214.355 22.4972 213.696 23.7385C213.037 24.9545 212.011 25.9425 210.618 26.7025C209.225 27.4372 207.439 27.8045 205.26 27.8045H200.282V38.1025H195.418ZM200.282 23.8525H204.956C206.653 23.8525 207.869 23.4852 208.604 22.7505C209.364 21.9905 209.744 20.9645 209.744 19.6725C209.744 18.3552 209.364 17.3292 208.604 16.5945C207.869 15.8345 206.653 15.4545 204.956 15.4545H200.282V23.8525Z" fill="#170F49"/>
<path d="M0.423828 21.0569C0.423828 9.63621 9.68211 0.37793 21.1028 0.37793V28.9434C21.1028 40.364 11.8445 49.6223 0.423828 49.6223V21.0569Z" fill="#4A3AFF"/>
<path d="M24.1025 11.6147C24.1025 5.40881 29.1334 0.37793 35.3393 0.37793C41.5452 0.37793 46.5761 5.4088 46.5761 11.6147V12.2635C46.5761 18.4694 41.5452 23.5002 35.3393 23.5002C29.1334 23.5002 24.1025 18.4694 24.1025 12.2635V11.6147Z" fill="#4CBFFF"/>
<path d="M24.1025 37.7368C24.1025 31.5309 29.1334 26.5 35.3393 26.5C41.5452 26.5 46.5761 31.5309 46.5761 37.7368V38.3855C46.5761 44.5914 41.5452 49.6223 35.3393 49.6223C29.1334 49.6223 24.1025 44.5914 24.1025 38.3855V37.7368Z" fill="#9328FF"/>
</svg>
